<?xml version="1.0" encoding="utf-8"?>
<!-- Generator: Adobe Illustrator 16.0.0, SVG Export Plug-In . SVG Version: 6.00 Build 0)  -->
<!DOCTYPE svg PUBLIC "-//W3C//DTD SVG 1.1//EN" "http://www.w3.org/Graphics/SVG/1.1/DTD/svg11.dtd">
<svg version="1.1" id="Layer_1" xmlns="http://www.w3.org/2000/svg" xmlns:xlink="http://www.w3.org/1999/xlink" x="0px" y="0px"
	 width="600px" height="600px" viewBox="0 0 600 600" enable-background="new 0 0 600 600" xml:space="preserve">
<path fill-rule="evenodd" clip-rule="evenodd" fill="#FFFFFF" d="M538.092,10.852c1.537,2.565,3.405,5.941,4.642,8.999
	c6.731,16.624,21.779,36.48,31.448,60.394c3.658,9.041,5.479,31.102-11.487,26.908c-7.257-1.795-18.746-11.958-18.746-11.958
	c-4.951-4.125-12.44-7.185-7.863,2.69c20.093,43.343,20.346,80.233,24.494,126.471c1.35,20.059,2.083,21.224-4.234,40.656
	c-2.213,5.183-4.433,10.366-6.653,15.547c21.33,43.683-0.054,47.257,3.025,80.724c0.607,6.58,3.929,18.238,4.536,21.824
	c3.215,19.053,0.919,31.256-0.607,50.826c0,28-6.82,66.498,8.165,91.189c1.816,2.992,10.582,9.867,10.582,9.867
	c4.773,3.721,29.394,26.16,21.718,30.305c-2.977,1.607-0.913,2.482-3.575,4.67c-1.813,1.502-7.558,1.502-7.558,1.502
	c1.392,6.873-25.186,5.166-26.908,0.893c-0.493-1.211-21.471,5.84-29.653-8.025c-2.168-3.676-1.706-9.736-2.095-10.211
	c-1.208-1.494-3.328-2.396-6.65-3.291c-3.326-0.896-5.752-2.389-5.444-5.682c0.303-3.285,2.719-13.152,2.719-16.74
	c0-22.553-7.298-51.754-12.696-73.545c-4.349-8.008-12.073-11.773-20.765-12.811c-18.135-2.166-40.481,7.514-45.148,15.201
	c-14.721,24.244-21.522,17.602-19.351,48.732c-0.811,3.986-1.611,7.973-2.423,11.959c3.632,1.295,7.255,2.59,10.887,3.889
	c13.59,7.609,7.722,12.338,1.189,17.744c-10.758,8.906-5.46,9.131-10.563,16.336c0,0,2.416,4.188,4.534,5.381
	c2.448,1.385,3.931,3.689,4.835,6.391c1.656,4.941,1.741,11.242,1.516,15.738c-0.464,9.02-1.845,7.793-9.377,8.369
	c0,0-0.303,3.586-2.72,3.887c-2.423,0.301-5.142,0.896-6.651-0.602c-1.511-1.49-9.075-0.293-9.075-0.293
	c1.574,3.938-11.233,3.496-13.915,3.555c-6.31,0.143-5.126-0.49-8.458-4.156c-2.116-1.498-4.534,0-7.554,0
	c-3.027,0-6.35,1.797-8.771-1.498c-10.561-14.354,1.726-9.197-0.304-27.205c-0.301-2.691-2.113-6.58-2.113-6.58
	s-4.839-2.145-8.464-2.09c-16.056,0.244-18.284-0.332-23.309,2.824c-2.183,1.369-4.895,3.441-9.502,6.596
	c-9.475,7.02-17.731,7.621-29.781,5.977c-8.952-1.219-49.458-0.525-77.04-3.209c-40.747-3.959-20.92-11.088-32.715-46.123
	c-4.738-13.523-2.132-30.953,2.65-46.67c3.449-11.332,8.319-22.646,12.164-34.055c-48.656-37.246-57.598-123.553-152.993-66.969
	c-9.375,5.564-28.332,14.813-15.117-4.783c1.172-1.74,2.491-4.045,4.015-6.293c18.603-27.441,70.482-29.867,99.19-21.021
	c24.022,7.404,45.678,22.717,61.279,44.055c16.957,23.197,26.05,26.068,45.353-1.195c12.824-18.115,24.028-28.527,38.701-44.244
	c13.619-14.592,31.288-31.818,46.594-44.557c15.852-13.198,27.386-22.957,39.351-34.47c14.623-14.063,29.948-30.347,42.859-45.946
	c6.43-7.771,5.841-14.402,2.814-20.752c-2.09-4.381-5.449-8.56-8.255-13.034c-4.494-7.171-7.406-12.33-12.699-19.134
	c-1.611-1.194-3.224-2.389-4.835-3.584c-2.021,0.496-4.035,0.994-6.049,1.494c1.962,17.44-3.852,43.236-22.483,50.273
	c-6.65,2.513-14.038,1.206-23.173-6.325c-9.611-7.919-13.434-17.785-19.953-28.104c-1.514-2.39-5.444-5.679-7.259-11.657
	c-10.956-36.105,27.957-49.727,53.063-68.915c5.998-6.919,16.357-9.753,25.096-6.875c1.359,0.447,5.446,2.69,6.655,2.69
	c1.207,0,3.174,1.646,4.986-0.298c1.817-1.945,3.328-4.935,4.688-6.129c19.532-17.173,25.847-29.147,57.297-32.739
	c0,0,4.609-1.044,5.896-1.643C460.641,51.717,518.186-22.46,538.092,10.852z"/>
</svg>
